# xmcd
#
# Track frame offsets: 
#        150
#        17890
#        32822
#        44507
#        64620
#        83840
#        98265
#        114445
#        125357
#        138767
#        152847
#        168255
#        188310
#        200835
#        211822
#
# Disc length: 3033 seconds
#
# Revision: 4
# Processed by: cddbd v1.5.2PL0 Copyright (c) Steve Scherf et al.
# Submitted via: ExactAudioCopyFreeDBPlugin 1.0
#
DISCID=bb0bd70f
DTITLE=Various Artist - Country Got Soul Volume One
DYEAR=2003
DGENRE=Country
TTITLE0=Larry Jon Wilson - Sheldon Church Yard
TTITLE1=Razzy - I Hate Hate
TTITLE2=Charlie Rich - Hey Good Lookin
TTITLE3=Eddie Hinton - Come Running Back To You
TTITLE4=Tony Joe White - Did Somebody Make A Fool Out Of You?
TTITLE5=Travis Wammack - You Better Move On
TTITLE6=Donnie Fritts - Short End Of The Stick
TTITLE7=Delaney And Bonnie - We Can Love
TTITLE8=Reuben Howell - Funny How Time Slips Away
TTITLE9=Jim Ford - I'm Gonna Make You Love Me
TTITLE10=George Soule - Get Involved
TTITLE11=Sandra Rhodes - Where's Your Love Been?
TTITLE12=Johnny Daye - Stay Baby Stay
TTITLE13=Bobby Hatfield - The Feeling Is Right
TTITLE14=Dan Penn - If Love Was Money
EXTD=YEAR: 2003
EXTT0=
EXTT1=
EXTT2=
EXTT3=
EXTT4=
EXTT5=
EXTT6=
EXTT7=
EXTT8=
EXTT9=
EXTT10=
EXTT11=
EXTT12=
EXTT13=
EXTT14=
PLAYORDER=
